<!-- Generator: Adobe Illustrator 18.1.1, SVG Export Plug-In  -->
<svg version="1.1"
   xmlns="http://www.w3.org/2000/svg" xmlns:xlink="http://www.w3.org/1999/xlink" xmlns:a="http://ns.adobe.com/AdobeSVGViewerExtensions/3.0/"
   x="0px" y="0px" width="220.3px" height="220.3px" viewBox="0 0 220.3 220.3" enable-background="new 0 0 220.3 220.3"
   xml:space="preserve">
<defs>
</defs>
<g>
  <path fill="#879299" d="M95,128.6v-6.4c0-4.9,1-9,3-12.3c2-3.3,5.5-6.6,10.6-9.8c4-2.5,6.9-4.8,8.7-6.8c1.8-2,2.6-4.4,2.6-7
    c0-2.1-0.9-3.7-2.8-4.9c-1.9-1.2-4.3-1.8-7.4-1.8c-7.5,0-16.2,2.7-26.2,8L73.1,67.3c12.3-7,25.2-10.6,38.7-10.6
    c11.1,0,19.7,2.4,26,7.3c6.3,4.9,9.4,11.5,9.4,19.8c0,6-1.4,11.2-4.2,15.6c-2.8,4.4-7.3,8.5-13.4,12.5c-5.2,3.4-8.5,5.8-9.8,7.4
    c-1.3,1.6-2,3.4-2,5.5v3.8H95z M91.8,154.6c0-4.6,1.3-8.1,4-10.6c2.7-2.5,6.6-3.7,11.7-3.7c5,0,8.8,1.3,11.4,3.8
    c2.7,2.5,4,6,4,10.5c0,4.5-1.4,8-4.1,10.5c-2.8,2.5-6.5,3.7-11.3,3.7c-4.9,0-8.7-1.2-11.5-3.7C93.2,162.7,91.8,159.2,91.8,154.6z"
    />
</g>
<g>
  <path fill="#879299" d="M110.1,220.3C49.4,220.3,0,170.9,0,110.1S49.4,0,110.1,0s110.1,49.4,110.1,110.1S170.9,220.3,110.1,220.3z
     M110.1,19C59.9,19,19,59.9,19,110.1s40.9,91.1,91.1,91.1s91.1-40.9,91.1-91.1S160.4,19,110.1,19z"/>
</g>
</svg>
