<!-- Generator: Adobe Illustrator 18.1.1, SVG Export Plug-In  -->
<svg version="1.1"
   xmlns="http://www.w3.org/2000/svg" xmlns:xlink="http://www.w3.org/1999/xlink" xmlns:a="http://ns.adobe.com/AdobeSVGViewerExtensions/3.0/"
   x="0px" y="0px" width="48px" height="48px" viewBox="0 0 48 48" enable-background="new 0 0 48 48" xml:space="preserve">
<defs>
</defs>
<path fill="#FFFFFF" d="M24,48C10.7,48,0,37.3,0,24S10.7,0,24,0s24,10.7,24,24S37.3,48,24,48z M24,6C14.1,6,6,14.1,6,24
  s8.1,18,18,18s18-8.1,18-18S33.9,6,24,6z M32.5,32.5c-1.2,1.2-3.1,1.2-4.2,0L24,28.2l-4.2,4.2c-1.2,1.2-3.1,1.2-4.2,0
  s-1.2-3.1,0-4.2l4.2-4.2l-4.2-4.2c-1.2-1.2-1.2-3.1,0-4.2s3.1-1.2,4.2,0l4.2,4.2l4.2-4.2c1.2-1.2,3.1-1.2,4.2,0s1.2,3.1,0,4.2
  L28.2,24l4.2,4.2C33.7,29.4,33.7,31.3,32.5,32.5z"/>
</svg>
