<!-- Generator: Adobe Illustrator 18.1.1, SVG Export Plug-In  -->
<svg version="1.1"
   xmlns="http://www.w3.org/2000/svg" xmlns:xlink="http://www.w3.org/1999/xlink" xmlns:a="http://ns.adobe.com/AdobeSVGViewerExtensions/3.0/"
   x="0px" y="0px" width="317.8px" height="90.6px" viewBox="0 0 317.8 90.6" enable-background="new 0 0 317.8 90.6"
   xml:space="preserve">
<defs>
</defs>
<g>
  <g>
    <path fill="#2B3034" d="M39.2,52.8c0,5.3-1.8,9.4-5.4,12.1c-3.6,2.7-8.8,4.1-15.6,4.1c-3.7,0-6.9-0.2-9.6-0.6
      c-2.7-0.4-5.5-1.1-8.3-2.2V52.4c2.7,1.2,5.6,2.1,8.8,2.9c3.2,0.8,6,1.1,8.5,1.1c3.7,0,5.6-0.8,5.6-2.5c0-0.9-0.5-1.7-1.6-2.4
      c-1-0.7-4.1-2-9.1-4c-4.6-1.9-7.8-4-9.6-6.4C0.9,38.8,0,35.7,0,32.1c0-4.6,1.8-8.2,5.4-10.8c3.6-2.6,8.6-3.9,15.2-3.9
      c3.3,0,6.4,0.4,9.3,1.1c2.9,0.7,5.9,1.8,9,3.1l-4.7,11.1c-2.3-1-4.7-1.9-7.3-2.6c-2.5-0.7-4.6-1.1-6.2-1.1c-2.8,0-4.2,0.7-4.2,2.1
      c0,0.9,0.5,1.6,1.5,2.2c1,0.6,3.8,1.8,8.5,3.7c3.5,1.4,6.1,2.8,7.8,4.2c1.7,1.4,3,3,3.8,4.9C38.8,47.8,39.2,50.1,39.2,52.8z"/>
    <path fill="#2B3034" d="M69.5,55.4c2.3,0,5.1-0.6,8.3-1.7v12.5c-2.3,1-4.5,1.7-6.6,2.1c-2.1,0.4-4.5,0.6-7.4,0.6
      c-5.8,0-9.9-1.4-12.5-4.2c-2.5-2.8-3.8-7.2-3.8-13V31.1h-6v-7l7.6-5.4l4.4-10.5h11.2v10H77v12.9H64.8v19.4
      C64.8,53.7,66.4,55.4,69.5,55.4z"/>
    <path fill="#2B3034" d="M115.4,68.1l-3.3-6.6h-0.4c-2.3,2.9-4.7,4.8-7.1,5.9c-2.4,1.1-5.5,1.6-9.3,1.6c-4.7,0-8.4-1.4-11.1-4.2
      c-2.7-2.8-4-6.8-4-11.9c0-5.3,1.8-9.3,5.5-11.8s9-4,16-4.4l8.3-0.3v-0.7c0-4.1-2-6.2-6.1-6.2c-3.6,0-8.2,1.2-13.8,3.7l-5-11.3
      c5.8-3,13.1-4.5,22-4.5c6.4,0,11.3,1.6,14.8,4.7c3.5,3.2,5.3,7.6,5.3,13.3v32.7H115.4z M102.6,56.8c2.1,0,3.9-0.7,5.3-2
      c1.5-1.3,2.2-3,2.2-5.1v-3.9l-4,0.2c-5.7,0.2-8.5,2.3-8.5,6.2C97.7,55.3,99.4,56.8,102.6,56.8z"/>
    <path fill="#EA5746" d="M120.3,0h5.9l13.2,35c4,10.8,6.6,18,7.6,21.8h0.3c1.6-4.9,4.2-12.3,7.9-22.1L168.4,0h5.9l-28,72.5
      c-2.3,5.9-4.2,9.9-5.7,11.9c-1.5,2.1-3.3,3.6-5.4,4.6c-2,1-4.5,1.5-7.4,1.5c-2.2,0-4.6-0.4-7.3-1.2v-4.9c2.2,0.6,4.6,0.9,7.2,0.9
      c2,0,3.7-0.5,5.2-1.4c1.5-0.9,2.8-2.3,4-4.3c1.2-1.9,2.6-5,4.2-9.2c1.6-4.2,2.6-6.9,3.1-8.2L120.3,0z"/>
    <path fill="#2B3034" d="M197.5,55.4c2.3,0,5.1-0.6,8.3-1.7v12.5c-2.3,1-4.5,1.7-6.6,2.1c-2.1,0.4-4.5,0.6-7.4,0.6
      c-5.8,0-9.9-1.4-12.5-4.2c-2.5-2.8-3.8-7.2-3.8-13V31.1h-6v-7l7.6-5.4l4.4-10.5h11.2v10H205v12.9h-12.2v19.4
      C192.8,53.7,194.4,55.4,197.5,55.4z"/>
    <path fill="#2B3034" d="M246.3,68.1l-2.2-6.2h-1c-1.4,2.3-3.4,4-6,5.3c-2.6,1.2-5.6,1.8-9,1.8c-5.5,0-9.7-1.6-12.8-4.8
      c-3-3.2-4.6-7.7-4.6-13.5V18.3H228v27.2c0,3.3,0.5,5.7,1.4,7.4c0.9,1.7,2.4,2.5,4.5,2.5c3,0,5.1-1.2,6.3-3.5
      c1.3-2.3,1.9-6.3,1.9-11.8V18.3h17.2v49.8H246.3z"/>
    <path fill="#2B3034" d="M306,52.8c0,5.3-1.8,9.4-5.4,12.1c-3.6,2.7-8.8,4.1-15.6,4.1c-3.7,0-6.9-0.2-9.6-0.6
      c-2.7-0.4-5.5-1.1-8.3-2.2V52.4c2.7,1.2,5.6,2.1,8.8,2.9c3.2,0.8,6,1.1,8.5,1.1c3.7,0,5.6-0.8,5.6-2.5c0-0.9-0.5-1.7-1.6-2.4
      c-1-0.7-4.1-2-9.1-4c-4.6-1.9-7.8-4-9.6-6.4c-1.8-2.4-2.7-5.4-2.7-9.1c0-4.6,1.8-8.2,5.4-10.8c3.6-2.6,8.6-3.9,15.2-3.9
      c3.3,0,6.4,0.4,9.2,1.1c2.9,0.7,5.9,1.8,9,3.1L301,32.7c-2.3-1-4.7-1.9-7.3-2.6c-2.5-0.7-4.6-1.1-6.2-1.1c-2.8,0-4.2,0.7-4.2,2.1
      c0,0.9,0.5,1.6,1.5,2.2c1,0.6,3.8,1.8,8.5,3.7c3.5,1.4,6.1,2.8,7.8,4.2c1.7,1.4,3,3,3.8,4.9C305.6,47.8,306,50.1,306,52.8z"/>
  </g>
  <g>
    <path fill="#2B3034" d="M185,85.7c0,1-0.4,1.8-1.1,2.3c-0.7,0.6-1.7,0.9-3,0.9c-1.2,0-2.2-0.2-3.1-0.7v-2.2
      c0.7,0.3,1.4,0.6,1.9,0.7c0.5,0.1,1,0.2,1.4,0.2c0.5,0,0.9-0.1,1.2-0.3c0.3-0.2,0.4-0.5,0.4-0.9c0-0.2-0.1-0.4-0.2-0.6
      c-0.1-0.2-0.3-0.3-0.5-0.5s-0.7-0.4-1.4-0.7c-0.7-0.3-1.2-0.6-1.5-0.9c-0.3-0.3-0.6-0.6-0.8-1s-0.3-0.8-0.3-1.3c0-1,0.3-1.7,1-2.3
      s1.6-0.8,2.7-0.8c0.6,0,1.1,0.1,1.6,0.2s1.1,0.3,1.6,0.6l-0.7,1.8c-0.6-0.2-1.1-0.4-1.4-0.5c-0.4-0.1-0.8-0.1-1.1-0.1
      c-0.4,0-0.8,0.1-1,0.3c-0.2,0.2-0.4,0.5-0.4,0.8c0,0.2,0,0.4,0.1,0.5c0.1,0.2,0.2,0.3,0.5,0.4c0.2,0.1,0.7,0.4,1.5,0.8
      c1,0.5,1.7,1,2.1,1.5C184.8,84.4,185,85,185,85.7z"/>
    <path fill="#2B3034" d="M190.6,88.7h-2.3v-9h-3v-1.9h8.2v1.9h-3V88.7z"/>
    <path fill="#2B3034" d="M201.3,88.7l-0.8-2.6h-4l-0.8,2.6h-2.5l3.9-11h2.8l3.9,11H201.3z M200,84.2c-0.7-2.4-1.1-3.7-1.2-4
      c-0.1-0.3-0.2-0.6-0.2-0.7c-0.2,0.6-0.6,2.2-1.4,4.7H200z"/>
    <path fill="#2B3034" d="M208,82.3l2.3-4.5h2.5l-3.6,6.7v4.2h-2.3v-4.2l-3.6-6.7h2.5L208,82.3z"/>
    <path fill="#2B3034" d="M216.9,88.7V77.8h2.3v10.9H216.9z"/>
    <path fill="#2B3034" d="M231,88.7h-2.9l-4.7-8.3h-0.1c0.1,1.5,0.1,2.5,0.1,3.1v5.1h-2.1V77.8h2.9L229,86h0.1
      c-0.1-1.4-0.1-2.4-0.1-3v-5.2h2.1V88.7z"/>
    <path fill="#2B3034" d="M235.4,88.7h-2.3V77.8h6.3v1.9h-4v2.8h3.7v1.9h-3.7V88.7z"/>
    <path fill="#2B3034" d="M250.8,83.2c0,1.8-0.4,3.2-1.3,4.2s-2.2,1.5-3.9,1.5s-3-0.5-3.9-1.5c-0.9-1-1.3-2.4-1.3-4.2
      c0-1.8,0.4-3.2,1.3-4.2s2.2-1.4,3.9-1.4c1.7,0,3,0.5,3.8,1.4C250.4,80,250.8,81.4,250.8,83.2z M242.9,83.2c0,1.2,0.2,2.1,0.7,2.8
      c0.5,0.6,1.2,0.9,2.1,0.9c1.8,0,2.8-1.2,2.8-3.7c0-2.5-0.9-3.7-2.8-3.7c-0.9,0-1.6,0.3-2.1,0.9S242.9,82,242.9,83.2z"/>
    <path fill="#2B3034" d="M254.8,84.5v4.2h-2.3V77.8h3.2c1.5,0,2.6,0.3,3.3,0.8s1.1,1.4,1.1,2.5c0,0.6-0.2,1.2-0.5,1.7
      c-0.4,0.5-0.9,0.9-1.5,1.2c1.6,2.5,2.7,4,3.2,4.8h-2.6l-2.6-4.2H254.8z M254.8,82.6h0.7c0.7,0,1.3-0.1,1.6-0.4
      c0.3-0.2,0.5-0.6,0.5-1.1c0-0.5-0.2-0.9-0.5-1.1c-0.4-0.2-0.9-0.3-1.7-0.3h-0.7V82.6z"/>
    <path fill="#2B3034" d="M266.6,88.7l-2.6-8.6h-0.1c0.1,1.7,0.1,2.9,0.1,3.5v5.1H262V77.8h3.2l2.6,8.3h0l2.7-8.3h3.2v10.9h-2.2
      v-5.2c0-0.2,0-0.5,0-0.8s0-1.2,0.1-2.5h-0.1l-2.8,8.5H266.6z"/>
    <path fill="#2B3034" d="M282.1,88.7h-6.3V77.8h6.3v1.9h-4v2.4h3.7V84h-3.7v2.8h4V88.7z"/>
    <path fill="#2B3034" d="M292.8,83.1c0,1.8-0.5,3.2-1.5,4.1c-1,1-2.5,1.4-4.4,1.4h-3.1V77.8h3.4c1.8,0,3.2,0.5,4.2,1.4
      C292.3,80.1,292.8,81.5,292.8,83.1z M290.4,83.2c0-2.3-1-3.5-3.1-3.5H286v7.1h1C289.3,86.8,290.4,85.6,290.4,83.2z"/>
    <path fill="#2B3034" d="M293.9,87.6c0-0.4,0.1-0.7,0.3-0.9s0.6-0.3,1-0.3c0.4,0,0.7,0.1,1,0.3c0.2,0.2,0.3,0.5,0.3,0.9
      c0,0.4-0.1,0.7-0.3,0.9s-0.5,0.3-1,0.3c-0.4,0-0.7-0.1-1-0.3C294,88.4,293.9,88,293.9,87.6z"/>
  </g>
</g>
<g>
  <path fill="#2B3034" d="M312,25.7h-0.8v-3.3h-1.1v-0.7h3v0.7H312V25.7z"/>
  <path fill="#2B3034" d="M315.2,25.7l-1-3.1h0c0,0.6,0.1,1.1,0.1,1.3v1.9h-0.8v-4h1.2l0.9,3h0l1-3h1.2v4H317v-1.9c0-0.1,0-0.2,0-0.3
    c0-0.1,0-0.4,0-0.9h0l-1,3.1H315.2z"/>
</g>
</svg>
